<svg xmlns="http://www.w3.org/2000/svg" xmlns:xlink="http://www.w3.org/1999/xlink" xmlns:fi="http://pattern.flaticon.com/" x="0" y="0" width="700" height="350" viewBox="0 0 700 350"><rect x="0px" y="0px" width="100%" height="100%" opacity="1" fill="#ffc6e8"/><defs><g transform="matrix(0.1491553342251435 -0.09391261123649303 0.09391261123649303 0.1491553342251435 -32.22539403817895 126.85786291490548)" id="L1_130"><path d="m512 256c0 68.378906-26.628906 132.671875-74.980469 181.019531-48.347656 48.351563-112.640625 74.980469-181.019531 74.980469s-132.671875-26.628906-181.019531-74.980469c-48.351563-48.347656-74.980469-112.640625-74.980469-181.019531s26.628906-132.671875 74.980469-181.019531c48.347656-48.351563 112.640625-74.980469 181.019531-74.980469s132.671875 26.628906 181.019531 74.980469c48.351563 48.347656 74.980469 112.640625 74.980469 181.019531zm0 0" fill="#ffe171"/><path d="m512 256c0 68.378906-26.628906 132.671875-74.980469 181.019531-48.347656 48.351563-112.640625 74.980469-181.019531 74.980469v-512c68.378906 0 132.671875 26.628906 181.019531 74.980469 48.351563 48.347656 74.980469 112.640625 74.980469 181.019531zm0 0" fill="#ffd300"/><path d="m371.992188 258.652344-97.5-56.292969 97.5-56.289063 15 25.980469-52.5 30.308594 52.5 30.3125zm0 0" fill="#7a3d06"/><path d="m400.898438 314.25c-10.910157 29.21875-30.1875 54.21875-55.769532 72.289062-26.160156 18.5-56.988281 28.269532-89.128906 28.269532s-62.96875-9.769532-89.128906-28.269532c-25.582032-18.070312-44.859375-43.070312-55.769532-72.289062l28.097657-10.5c18.101562 48.488281 65.039062 81.058594 116.800781 81.058594s98.699219-32.570313 116.800781-81.058594zm0 0" fill="#b26d3c"/><path d="m400.898438 314.25c-10.910157 29.21875-30.1875 54.21875-55.769532 72.289062-26.160156 18.5-56.988281 28.269532-89.128906 28.269532v-30c51.761719 0 98.699219-32.570313 116.800781-81.058594zm0 0" fill="#7a3d06"/><path d="m154.984375 154.332031c-24.132813 0-43.765625 19.632813-43.765625 43.765625 0 24.132813 19.632812 43.761719 43.765625 43.761719s43.761719-19.632813 43.761719-43.761719c0-24.132812-19.632813-43.765625-43.761719-43.765625zm0 0" fill="#b26d3c"/></g><g transform="matrix(0.18506310670004683 0.1242961146211912 -0.1242961146211912 0.18506310670004683 212.44365002781296 239.80403934176306)" id="L1_131"><path d="m512 256c0 68.378906-26.628906 132.671875-74.980469 181.019531-48.347656 48.351563-112.640625 74.980469-181.019531 74.980469s-132.671875-26.628906-181.019531-74.980469c-48.351563-48.347656-74.980469-112.640625-74.980469-181.019531s26.628906-132.671875 74.980469-181.019531c48.347656-48.351563 112.640625-74.980469 181.019531-74.980469s132.671875 26.628906 181.019531 74.980469c48.351563 48.347656 74.980469 112.640625 74.980469 181.019531zm0 0" fill="#ffe171"/><path d="m512 256c0 68.378906-26.628906 132.671875-74.980469 181.019531-48.347656 48.351563-112.640625 74.980469-181.019531 74.980469v-512c68.378906 0 132.671875 26.628906 181.019531 74.980469 48.351563 48.347656 74.980469 112.640625 74.980469 181.019531zm0 0" fill="#ffd300"/><path d="m241.742188 135.65625c-3.664063-27.859375-29.328126-47.550781-57.171876-43.882812-10.515624 1.382812-20.21875 6.011718-27.851562 13.027343-9.191406-4.804687-19.761719-6.769531-30.273438-5.386719-13.496093 1.773438-25.496093 8.699219-33.785156 19.496094-8.285156 10.800782-11.875 24.179688-10.101562 37.675782 1.652344 12.550781 7.867187 23.976562 17.5 32.164062l76.230468 64.9375 56.855469-82.421875c7.195313-10.410156 10.246094-23.054687 8.597657-35.609375zm0 0" fill="#f95858"/><path d="m383.101562 99.414062c-10.519531-1.382812-21.085937.585938-30.273437 5.386719-7.632813-7.015625-17.335937-11.644531-27.851563-13.027343-27.851562-3.664063-53.507812 16.023437-57.171874 43.882812-1.648438 12.550781 1.402343 25.199219 8.589843 35.597656l56.859375 82.433594 76.226563-64.925781c9.636719-8.199219 15.855469-19.625 17.507812-32.175781 3.660157-27.863282-16.027343-53.507813-43.886719-57.171876zm0 0" fill="#ea1b5f"/><path d="m405.710938 280.46875v15c0 46.929688-21.710938 88.890625-55.609376 116.359375-25.730468 20.851563-94.101562-49.003906-94.101562-49.003906s-68.148438 69.9375-93.839844 49.214843c-34.050781-27.46875-55.871094-69.519531-55.871094-116.570312v-15zm0 0" fill="#b26d3c"/><path d="m405.710938 280.46875v15c0 46.929688-21.710938 88.890625-55.609376 116.359375-25.730468 20.851563-94.101562-49.003906-94.101562-49.003906v-82.355469zm0 0" fill="#7a3d06"/><path d="m350.101562 411.828125c-25.730468 20.851563-58.480468 33.351563-94.101562 33.351563-35.5 0-68.148438-12.417969-93.839844-33.140626 2.808594-7.089843 7.378906-16.449218 14.5-25.898437 13.167969-17.480469 37.628906-38.3125 79.339844-38.3125 41.648438 0 66.101562 20.511719 79.269531 37.722656 7.378907 9.640625 12.03125 19.1875 14.832031 26.277344zm0 0" fill="#f95858"/><path d="m350.101562 411.828125c-25.730468 20.851563-58.480468 33.351563-94.101562 33.351563v-97.351563c41.648438 0 66.101562 20.511719 79.269531 37.722656 7.378907 9.640625 12.03125 19.1875 14.832031 26.277344zm0 0" fill="#ea1b5f"/></g><g transform="matrix(0.13810680075141288 -0.07181553750935477 0.07181553750935477 0.13810680075141288 -19.740118594756517 320.02943661003314)" id="L1_132"><path d="m512 256c0 68.378906-26.628906 132.671875-74.980469 181.019531-48.347656 48.351563-112.640625 74.980469-181.019531 74.980469s-132.671875-26.628906-181.019531-74.980469c-48.351563-48.347656-74.980469-112.640625-74.980469-181.019531s26.628906-132.671875 74.980469-181.019531c48.347656-48.351563 112.640625-74.980469 181.019531-74.980469s132.671875 26.628906 181.019531 74.980469c48.351563 48.347656 74.980469 112.640625 74.980469 181.019531zm0 0" fill="#ffe171"/><path d="m512 256c0 68.378906-26.628906 132.671875-74.980469 181.019531-48.347656 48.351563-112.640625 74.980469-181.019531 74.980469v-512c68.378906 0 132.671875 26.628906 181.019531 74.980469 48.351563 48.347656 74.980469 112.640625 74.980469 181.019531zm0 0" fill="#ffd300"/><path d="m301.949219 380.398438c0 15.410156-7.96875 29.210937-21.320313 36.921874l-.457031.257813-24.171875 12.832031-8.328125 4.417969-14.070313-26.5 22.398438-11.886719 9.820312-5.210937c5.53125-3.300781 6.128907-8.660157 6.128907-10.832031 0-2.1875-.621094-7.648438-6.320313-10.9375l-9.628906-5.5625-12.691406-7.328126v-17.710937l12.691406-7.328125 9.628906-5.5625c5.699219-3.289062 6.320313-8.75 6.320313-10.9375 0-2.191406-.621094-7.652344-6.320313-10.941406l-9.628906-5.511719-22.820312-13.058594 14.910156-26.039062 7.910156 4.53125 24.578125 14.066406c13.402344 7.742187 21.371094 21.542969 21.371094 36.953125 0 12.898438-5.589844 24.667969-15.230469 32.6875 9.652344 8.011719 15.230469 19.78125 15.230469 32.679688zm0 0" fill="#b26d3c"/><path d="m395.804688 215.667969h-30c0-14.152344-11.515626-25.667969-25.667969-25.667969-14.152344 0-25.667969 11.515625-25.667969 25.667969h-30c0-30.695313 24.972656-55.667969 55.667969-55.667969 30.695312 0 55.667969 24.972656 55.667969 55.667969zm0 0" fill="#7a3d06"/><path d="m454.804688 339.5625c-12.203126-1.605469-24.476563.863281-34.984376 6.746094-8.632812-8.402344-19.847656-13.957032-32.050781-15.5625-30.867187-4.058594-59.296875 17.757812-63.359375 48.632812v.003906c-1.824218 13.90625 1.558594 27.921876 9.523438 39.445313l64.128906 92.976563 85.976562-73.234376c10.679688-9.082031 17.570313-21.746093 19.398438-35.652343 4.058594-30.878907-17.757812-59.296875-48.632812-63.355469zm0 0" fill="#ea1b5f"/><path d="m154.984375 154.332031c-24.132813 0-43.765625 19.632813-43.765625 43.765625 0 24.132813 19.632812 43.761719 43.765625 43.761719s43.761719-19.632813 43.761719-43.761719c0-24.132812-19.632813-43.765625-43.761719-43.765625zm0 0" fill="#b26d3c"/><path d="m301.949219 380.398438c0 15.410156-7.96875 29.210937-21.320313 36.921874l-.457031.257813-24.171875 12.832031v-33.96875l9.820312-5.210937c5.53125-3.300781 6.128907-8.660157 6.128907-10.832031 0-2.1875-.621094-7.648438-6.320313-10.9375l-9.628906-5.5625v-32.367188l9.628906-5.5625c5.699219-3.289062 6.320313-8.75 6.320313-10.9375 0-2.191406-.621094-7.652344-6.320313-10.941406l-9.628906-5.511719v-34.566406l24.578125 14.066406c13.402344 7.742187 21.371094 21.542969 21.371094 36.953125 0 12.898438-5.589844 24.667969-15.230469 32.6875 9.652344 8.011719 15.230469 19.78125 15.230469 32.679688zm0 0" fill="#7a3d06"/></g><g transform="matrix(0.1171875 0 0 0.1171875 209 136)" id="L1_133"><path d="m512 256c0 68.378906-26.628906 132.671875-74.980469 181.019531-48.347656 48.351563-112.640625 74.980469-181.019531 74.980469s-132.671875-26.628906-181.019531-74.980469c-48.351563-48.347656-74.980469-112.640625-74.980469-181.019531s26.628906-132.671875 74.980469-181.019531c48.347656-48.351563 112.640625-74.980469 181.019531-74.980469s132.671875 26.628906 181.019531 74.980469c48.351563 48.347656 74.980469 112.640625 74.980469 181.019531zm0 0" fill="#ffe171"/><path d="m512 256c0 68.378906-26.628906 132.671875-74.980469 181.019531-48.347656 48.351563-112.640625 74.980469-181.019531 74.980469v-512c68.378906 0 132.671875 26.628906 181.019531 74.980469 48.351563 48.347656 74.980469 112.640625 74.980469 181.019531zm0 0" fill="#ffd300"/><path d="m351.328125 272.378906c0 52.5625-42.757813 95.332032-95.328125 95.332032s-95.328125-42.769532-95.328125-95.332032h30c0 36.019532 29.308594 65.332032 65.328125 65.332032s65.328125-29.3125 65.328125-65.332032zm0 0" fill="#b26d3c"/><path d="m83.449219 227.554688c-26.710938 0-48.445313 21.730468-48.445313 48.445312s21.734375 48.445312 48.445313 48.445312c26.714843 0 48.449219-21.730468 48.449219-48.445312s-21.734376-48.445312-48.449219-48.445312zm0 0" fill="#f95858"/><path d="m428.550781 227.554688c-26.714843 0-48.449219 21.730468-48.449219 48.445312s21.734376 48.445312 48.449219 48.445312c26.710938 0 48.445313-21.730468 48.445313-48.445312s-21.734375-48.445312-48.445313-48.445312zm0 0" fill="#ea1b5f"/><path d="m227.53125 208.332031h-30c0-14.152343-11.515625-25.667969-25.667969-25.667969-14.152343 0-25.667969 11.515626-25.667969 25.667969h-30c0-30.695312 24.972657-55.667969 55.667969-55.667969 30.695313 0 55.667969 24.972657 55.667969 55.667969zm0 0" fill="#b26d3c"/><g fill="#7a3d06"><path d="m395.804688 208.332031h-30c0-14.152343-11.515626-25.667969-25.667969-25.667969-14.152344 0-25.667969 11.515626-25.667969 25.667969h-30c0-30.695312 24.972656-55.667969 55.667969-55.667969 30.695312 0 55.667969 24.972657 55.667969 55.667969zm0 0"/><path d="m351.328125 272.378906c0 52.5625-42.757813 95.332032-95.328125 95.332032v-30c36.019531 0 65.328125-29.3125 65.328125-65.332032zm0 0"/></g></g><g transform="matrix(0.1171875 0 0 0.1171875 86 195)" id="L1_134"><path d="m512 256c0 68.378906-26.628906 132.671875-74.980469 181.019531-48.347656 48.351563-112.640625 74.980469-181.019531 74.980469s-132.671875-26.628906-181.019531-74.980469c-48.351563-48.347656-74.980469-112.640625-74.980469-181.019531s26.628906-132.671875 74.980469-181.019531c48.347656-48.351563 112.640625-74.980469 181.019531-74.980469s132.671875 26.628906 181.019531 74.980469c48.351563 48.347656 74.980469 112.640625 74.980469 181.019531zm0 0" fill="#ffe171"/><path d="m512 256c0 68.378906-26.628906 132.671875-74.980469 181.019531-48.347656 48.351563-112.640625 74.980469-181.019531 74.980469v-512c68.378906 0 132.671875 26.628906 181.019531 74.980469 48.351563 48.347656 74.980469 112.640625 74.980469 181.019531zm0 0" fill="#ffd300"/><path d="m227.53125 190.332031h-30c0-14.152343-11.515625-25.667969-25.667969-25.667969-14.152343 0-25.667969 11.515626-25.667969 25.667969h-30c0-30.695312 24.972657-55.667969 55.667969-55.667969 30.695313 0 55.667969 24.976563 55.667969 55.667969zm0 0" fill="#b26d3c"/><path d="m395.804688 190.332031h-30c0-14.152343-11.515626-25.667969-25.667969-25.667969-14.152344 0-25.667969 11.515626-25.667969 25.667969h-30c0-30.695312 24.972656-55.667969 55.667969-55.667969 30.695312 0 55.667969 24.976563 55.667969 55.667969zm0 0" fill="#7a3d06"/><path d="m340.136719 269.710938s77.5625 33.375 72.753906 48.800781c-20.832031 66.835937-83.285156 115.488281-156.890625 115.488281-73.425781 0-135.753906-48.414062-156.738281-114.996094-4.90625-15.570312 72.601562-49.292968 72.601562-49.292968zm0 0" fill="#f95858"/><path d="m340.136719 269.710938s77.5625 33.375 72.753906 48.800781c-20.832031 66.835937-83.285156 115.488281-156.890625 115.488281v-164.289062zm0 0" fill="#ea1b5f"/><path d="m420.289062 254.710938v15c0 17.167968-2.648437 33.71875-7.558593 49.289062h-313.460938c-4.910156-15.570312-7.558593-32.121094-7.558593-49.289062v-15zm0 0" fill="#dcf3ff"/><path d="m420.289062 254.710938v15c0 17.167968-2.648437 33.71875-7.558593 49.289062h-156.730469v-64.289062zm0 0" fill="#b0e2fa"/></g><g transform="matrix(0.15191747284747115 0.03038349521673903 -0.03038349521673903 0.15191747284747115 122.88730172653257 44.330952175562196)" id="L1_135"><path d="m512 256c0 68.378906-26.628906 132.671875-74.980469 181.019531-48.347656 48.351563-112.640625 74.980469-181.019531 74.980469s-132.671875-26.628906-181.019531-74.980469c-48.351563-48.347656-74.980469-112.640625-74.980469-181.019531s26.628906-132.671875 74.980469-181.019531c48.347656-48.351563 112.640625-74.980469 181.019531-74.980469s132.671875 26.628906 181.019531 74.980469c48.351563 48.347656 74.980469 112.640625 74.980469 181.019531zm0 0" fill="#ffe171"/><path d="m512 256c0 68.378906-26.628906 132.671875-74.980469 181.019531-48.347656 48.351563-112.640625 74.980469-181.019531 74.980469v-512c68.378906 0 132.671875 26.628906 181.019531 74.980469 48.351563 48.347656 74.980469 112.640625 74.980469 181.019531zm0 0" fill="#ffd300"/><path d="m203.066406 179.171875 46.523438-45.351563-.40625-1.25-64.292969-9.339843-28.738281-58.230469h-1.34375l-28.738282 58.230469-64.292968 9.339843-.40625 1.25 46.523437 45.351563-10.992187 64.082031 1.027344.746094 57.550781-30.257812 57.550781 30.257812 1.027344-.746094zm0 0" fill="#4cc4ff"/><path d="m404.105469 179.171875 46.523437-45.351563-.40625-1.25-64.292968-9.339843-28.738282-58.230469h-1.34375l-28.738281 58.230469-64.292969 9.339843-.40625 1.25 46.523438 45.351563-10.992188 64.082031 1.027344.746094 57.550781-30.257812 57.550781 30.257812 1.027344-.746094zm0 0" fill="#169eff"/><path d="m356.519531 288.070312s51.164063 31.3125 46.65625 45.78125c-19.542969 62.695313-78.128906 108.335938-147.175781 108.335938-68.878906 0-127.339844-45.417969-147.023438-107.878906-4.601562-14.601563 46.503907-46.238282 46.503907-46.238282zm0 0" fill="#f95858"/><path d="m356.519531 288.070312s46.558594 46.085938 46.511719 46.242188c-19.6875 62.457031-78.15625 107.875-147.03125 107.875v-154.117188zm0 0" fill="#ea1b5f"/><path d="m410.113281 274v14.070312c0 16.109376-2.484375 31.632813-7.089843 46.238282h-294.046876c-4.605468-14.605469-7.089843-30.132813-7.089843-46.238282v-14.070312zm0 0" fill="#dcf3ff"/><path d="m410.113281 274v14.070312c0 16.109376-2.484375 31.632813-7.089843 46.238282h-147.023438v-60.308594zm0 0" fill="#b0e2fa"/></g><g transform="matrix(-0.11600970718434157 0.03038349141565258 -0.03038349141565258 -0.11600970718434157 327.4766588415985 94.92031123678439)" id="L1_136"><path d="m512 256c0 68.378906-26.628906 132.671875-74.980469 181.019531-48.347656 48.351563-112.640625 74.980469-181.019531 74.980469s-132.671875-26.628906-181.019531-74.980469c-48.351563-48.347656-74.980469-112.640625-74.980469-181.019531s26.628906-132.671875 74.980469-181.019531c48.347656-48.351563 112.640625-74.980469 181.019531-74.980469s132.671875 26.628906 181.019531 74.980469c48.351563 48.347656 74.980469 112.640625 74.980469 181.019531zm0 0" fill="#ffe171"/><path d="m512 256c0 68.378906-26.628906 132.671875-74.980469 181.019531-48.347656 48.351563-112.640625 74.980469-181.019531 74.980469v-512c68.378906 0 132.671875 26.628906 181.019531 74.980469 48.351563 48.347656 74.980469 112.640625 74.980469 181.019531zm0 0" fill="#ffd300"/><path d="m241.742188 135.65625c-3.664063-27.859375-29.328126-47.550781-57.171876-43.882812-10.515624 1.382812-20.21875 6.011718-27.851562 13.027343-9.191406-4.804687-19.761719-6.769531-30.273438-5.386719-13.496093 1.773438-25.496093 8.699219-33.785156 19.496094-8.285156 10.800782-11.875 24.179688-10.101562 37.675782 1.652344 12.550781 7.867187 23.976562 17.5 32.164062l76.230468 64.9375 56.855469-82.421875c7.195313-10.410156 10.246094-23.054687 8.597657-35.609375zm0 0" fill="#f95858"/><path d="m383.101562 99.414062c-10.519531-1.382812-21.085937.585938-30.273437 5.386719-7.632813-7.015625-17.335937-11.644531-27.851563-13.027343-27.851562-3.664063-53.507812 16.023437-57.171874 43.882812-1.648438 12.550781 1.402343 25.199219 8.589843 35.597656l56.859375 82.433594 76.226563-64.925781c9.636719-8.199219 15.855469-19.625 17.507812-32.175781 3.660157-27.863282-16.027343-53.507813-43.886719-57.171876zm0 0" fill="#ea1b5f"/><path d="m405.710938 280.46875v15c0 46.929688-21.710938 88.890625-55.609376 116.359375-25.730468 20.851563-94.101562-49.003906-94.101562-49.003906s-68.148438 69.9375-93.839844 49.214843c-34.050781-27.46875-55.871094-69.519531-55.871094-116.570312v-15zm0 0" fill="#b26d3c"/><path d="m405.710938 280.46875v15c0 46.929688-21.710938 88.890625-55.609376 116.359375-25.730468 20.851563-94.101562-49.003906-94.101562-49.003906v-82.355469zm0 0" fill="#7a3d06"/><path d="m350.101562 411.828125c-25.730468 20.851563-58.480468 33.351563-94.101562 33.351563-35.5 0-68.148438-12.417969-93.839844-33.140626 2.808594-7.089843 7.378906-16.449218 14.5-25.898437 13.167969-17.480469 37.628906-38.3125 79.339844-38.3125 41.648438 0 66.101562 20.511719 79.269531 37.722656 7.378907 9.640625 12.03125 19.1875 14.832031 26.277344zm0 0" fill="#f95858"/><path d="m350.101562 411.828125c-25.730468 20.851563-58.480468 33.351563-94.101562 33.351563v-97.351563c41.648438 0 66.101562 20.511719 79.269531 37.722656 7.378907 9.640625 12.03125 19.1875 14.832031 26.277344zm0 0" fill="#ea1b5f"/></g><g transform="matrix(-0.09115048695943641 -0.0441941737308501 -0.0441941737308501 0.09115048695943641 365.6482331367133 226.9791838134819)" id="L1_137"><path d="m512 256c0 68.378906-26.628906 132.671875-74.980469 181.019531-48.347656 48.351563-112.640625 74.980469-181.019531 74.980469s-132.671875-26.628906-181.019531-74.980469c-48.351563-48.347656-74.980469-112.640625-74.980469-181.019531s26.628906-132.671875 74.980469-181.019531c48.347656-48.351563 112.640625-74.980469 181.019531-74.980469s132.671875 26.628906 181.019531 74.980469c48.351563 48.347656 74.980469 112.640625 74.980469 181.019531zm0 0" fill="#ffe171"/><path d="m512 256c0 68.378906-26.628906 132.671875-74.980469 181.019531-48.347656 48.351563-112.640625 74.980469-181.019531 74.980469v-512c68.378906 0 132.671875 26.628906 181.019531 74.980469 48.351563 48.347656 74.980469 112.640625 74.980469 181.019531zm0 0" fill="#ffd300"/><path d="m301.949219 380.398438c0 15.410156-7.96875 29.210937-21.320313 36.921874l-.457031.257813-24.171875 12.832031-8.328125 4.417969-14.070313-26.5 22.398438-11.886719 9.820312-5.210937c5.53125-3.300781 6.128907-8.660157 6.128907-10.832031 0-2.1875-.621094-7.648438-6.320313-10.9375l-9.628906-5.5625-12.691406-7.328126v-17.710937l12.691406-7.328125 9.628906-5.5625c5.699219-3.289062 6.320313-8.75 6.320313-10.9375 0-2.191406-.621094-7.652344-6.320313-10.941406l-9.628906-5.511719-22.820312-13.058594 14.910156-26.039062 7.910156 4.53125 24.578125 14.066406c13.402344 7.742187 21.371094 21.542969 21.371094 36.953125 0 12.898438-5.589844 24.667969-15.230469 32.6875 9.652344 8.011719 15.230469 19.78125 15.230469 32.679688zm0 0" fill="#b26d3c"/><path d="m395.804688 215.667969h-30c0-14.152344-11.515626-25.667969-25.667969-25.667969-14.152344 0-25.667969 11.515625-25.667969 25.667969h-30c0-30.695313 24.972656-55.667969 55.667969-55.667969 30.695312 0 55.667969 24.972656 55.667969 55.667969zm0 0" fill="#7a3d06"/><path d="m454.804688 339.5625c-12.203126-1.605469-24.476563.863281-34.984376 6.746094-8.632812-8.402344-19.847656-13.957032-32.050781-15.5625-30.867187-4.058594-59.296875 17.757812-63.359375 48.632812v.003906c-1.824218 13.90625 1.558594 27.921876 9.523438 39.445313l64.128906 92.976563 85.976562-73.234376c10.679688-9.082031 17.570313-21.746093 19.398438-35.652343 4.058594-30.878907-17.757812-59.296875-48.632812-63.355469zm0 0" fill="#ea1b5f"/><path d="m154.984375 154.332031c-24.132813 0-43.765625 19.632813-43.765625 43.765625 0 24.132813 19.632812 43.761719 43.765625 43.761719s43.761719-19.632813 43.761719-43.761719c0-24.132812-19.632813-43.765625-43.761719-43.765625zm0 0" fill="#b26d3c"/><path d="m301.949219 380.398438c0 15.410156-7.96875 29.210937-21.320313 36.921874l-.457031.257813-24.171875 12.832031v-33.96875l9.820312-5.210937c5.53125-3.300781 6.128907-8.660157 6.128907-10.832031 0-2.1875-.621094-7.648438-6.320313-10.9375l-9.628906-5.5625v-32.367188l9.628906-5.5625c5.699219-3.289062 6.320313-8.75 6.320313-10.9375 0-2.191406-.621094-7.652344-6.320313-10.941406l-9.628906-5.511719v-34.566406l24.578125 14.066406c13.402344 7.742187 21.371094 21.542969 21.371094 36.953125 0 12.898438-5.589844 24.667969-15.230469 32.6875 9.652344 8.011719 15.230469 19.78125 15.230469 32.679688zm0 0" fill="#7a3d06"/></g></defs><g fi:class="KUsePattern"><pattern id="pattern_L1_130" width="350" height="350" patternUnits="userSpaceOnUse"><use xlink:href="#L1_130" x="-350" y="-350"/><use xlink:href="#L1_130" x="0" y="-350"/><use xlink:href="#L1_130" x="350" y="-350"/><use xlink:href="#L1_130" x="-350" y="0"/><use xlink:href="#L1_130" x="0" y="0"/><use xlink:href="#L1_130" x="350" y="0"/><use xlink:href="#L1_130" x="-350" y="350"/><use xlink:href="#L1_130" x="0" y="350"/><use xlink:href="#L1_130" x="350" y="350"/></pattern><rect x="0" y="0" width="100%" height="100%" fill="url(#pattern_L1_130)"/></g><g fi:class="KUsePattern"><pattern id="pattern_L1_131" width="350" height="350" patternUnits="userSpaceOnUse"><use xlink:href="#L1_131" x="-350" y="-350"/><use xlink:href="#L1_131" x="0" y="-350"/><use xlink:href="#L1_131" x="350" y="-350"/><use xlink:href="#L1_131" x="-350" y="0"/><use xlink:href="#L1_131" x="0" y="0"/><use xlink:href="#L1_131" x="350" y="0"/><use xlink:href="#L1_131" x="-350" y="350"/><use xlink:href="#L1_131" x="0" y="350"/><use xlink:href="#L1_131" x="350" y="350"/></pattern><rect x="0" y="0" width="100%" height="100%" fill="url(#pattern_L1_131)"/></g><g fi:class="KUsePattern"><pattern id="pattern_L1_132" width="350" height="350" patternUnits="userSpaceOnUse"><use xlink:href="#L1_132" x="-350" y="-350"/><use xlink:href="#L1_132" x="0" y="-350"/><use xlink:href="#L1_132" x="350" y="-350"/><use xlink:href="#L1_132" x="-350" y="0"/><use xlink:href="#L1_132" x="0" y="0"/><use xlink:href="#L1_132" x="350" y="0"/><use xlink:href="#L1_132" x="-350" y="350"/><use xlink:href="#L1_132" x="0" y="350"/><use xlink:href="#L1_132" x="350" y="350"/></pattern><rect x="0" y="0" width="100%" height="100%" fill="url(#pattern_L1_132)"/></g><g fi:class="KUsePattern"><pattern id="pattern_L1_133" width="350" height="350" patternUnits="userSpaceOnUse"><use xlink:href="#L1_133" x="-350" y="-350"/><use xlink:href="#L1_133" x="0" y="-350"/><use xlink:href="#L1_133" x="350" y="-350"/><use xlink:href="#L1_133" x="-350" y="0"/><use xlink:href="#L1_133" x="0" y="0"/><use xlink:href="#L1_133" x="350" y="0"/><use xlink:href="#L1_133" x="-350" y="350"/><use xlink:href="#L1_133" x="0" y="350"/><use xlink:href="#L1_133" x="350" y="350"/></pattern><rect x="0" y="0" width="100%" height="100%" fill="url(#pattern_L1_133)"/></g><g fi:class="KUsePattern"><pattern id="pattern_L1_134" width="350" height="350" patternUnits="userSpaceOnUse"><use xlink:href="#L1_134" x="-350" y="-350"/><use xlink:href="#L1_134" x="0" y="-350"/><use xlink:href="#L1_134" x="350" y="-350"/><use xlink:href="#L1_134" x="-350" y="0"/><use xlink:href="#L1_134" x="0" y="0"/><use xlink:href="#L1_134" x="350" y="0"/><use xlink:href="#L1_134" x="-350" y="350"/><use xlink:href="#L1_134" x="0" y="350"/><use xlink:href="#L1_134" x="350" y="350"/></pattern><rect x="0" y="0" width="100%" height="100%" fill="url(#pattern_L1_134)"/></g><g fi:class="KUsePattern"><pattern id="pattern_L1_135" width="350" height="350" patternUnits="userSpaceOnUse"><use xlink:href="#L1_135" x="-350" y="-350"/><use xlink:href="#L1_135" x="0" y="-350"/><use xlink:href="#L1_135" x="350" y="-350"/><use xlink:href="#L1_135" x="-350" y="0"/><use xlink:href="#L1_135" x="0" y="0"/><use xlink:href="#L1_135" x="350" y="0"/><use xlink:href="#L1_135" x="-350" y="350"/><use xlink:href="#L1_135" x="0" y="350"/><use xlink:href="#L1_135" x="350" y="350"/></pattern><rect x="0" y="0" width="100%" height="100%" fill="url(#pattern_L1_135)"/></g><g fi:class="KUsePattern"><pattern id="pattern_L1_136" width="350" height="350" patternUnits="userSpaceOnUse"><use xlink:href="#L1_136" x="-350" y="-350"/><use xlink:href="#L1_136" x="0" y="-350"/><use xlink:href="#L1_136" x="350" y="-350"/><use xlink:href="#L1_136" x="-350" y="0"/><use xlink:href="#L1_136" x="0" y="0"/><use xlink:href="#L1_136" x="350" y="0"/><use xlink:href="#L1_136" x="-350" y="350"/><use xlink:href="#L1_136" x="0" y="350"/><use xlink:href="#L1_136" x="350" y="350"/></pattern><rect x="0" y="0" width="100%" height="100%" fill="url(#pattern_L1_136)"/></g><g fi:class="KUsePattern"><pattern id="pattern_L1_137" width="350" height="350" patternUnits="userSpaceOnUse"><use xlink:href="#L1_137" x="-350" y="-350"/><use xlink:href="#L1_137" x="0" y="-350"/><use xlink:href="#L1_137" x="350" y="-350"/><use xlink:href="#L1_137" x="-350" y="0"/><use xlink:href="#L1_137" x="0" y="0"/><use xlink:href="#L1_137" x="350" y="0"/><use xlink:href="#L1_137" x="-350" y="350"/><use xlink:href="#L1_137" x="0" y="350"/><use xlink:href="#L1_137" x="350" y="350"/></pattern><rect x="0" y="0" width="100%" height="100%" fill="url(#pattern_L1_137)"/></g></svg>