<svg id="Layer_1" data-name="Layer 1" xmlns="http://www.w3.org/2000/svg" viewBox="0 0 512 512"><title>love-happy2</title><path d="M437,75A256,256,0,0,0,75,437,256,256,0,0,0,437,75ZM415.81,415.81A226,226,0,0,1,96.19,96.19,226,226,0,0,1,415.81,415.81Z" transform="translate(0)"/><path d="M381.78,304.06H130.23a15,15,0,0,0-15,15C115.23,386.85,178.38,442,256,442a154.26,154.26,0,0,0,81.67-22.85,15.3,15.3,0,0,0,2.62-1.68c34.27-22.45,56.48-58.2,56.48-98.41a15,15,0,0,0-15-15ZM207.71,402.69c14.19-9.68,30.13-14.44,48.3-14.44,18.45,0,34.47,4.73,48.53,14.34a129.9,129.9,0,0,1-96.83.1Zm124.71-16.42c-21.39-18.6-47-28-76.41-28-29,0-54.62,9.46-76.26,28.14-17.15-13.67-29.11-31.89-33.08-52.33H365.34c-4,20.38-15.86,38.55-32.92,52.21Z" transform="translate(0)"/><path d="M404.44,150.57a47.27,47.27,0,0,0-31.23-13.4,46.42,46.42,0,0,0-25.14,6.59c-19.62-11.69-42-6.58-56.21,6.42a47.36,47.36,0,0,0-15.43,30.42c-1.22,12.79,2.95,25.36,12.05,36.38.28.35.57.68.88,1L325,255.28l6.15,6.43a23.18,23.18,0,0,0,33.49,0L406.51,218c.16-.16.31-.32.45-.49,20.14-23,14-51.08-2.52-66.92Zm-19.86,46.94-36.64,38.3-1.22-1.27-35.28-36.88c-10.7-13.15-2.2-22.72.68-25.35,5.84-5.36,16-8.33,25.23.9a15,15,0,0,0,20.92.25c12.45-11.83,22.58-3.94,25.39-1.25,5.74,5.51,9.38,15.41.92,25.3Z" transform="translate(0)"/><path d="M164.17,268.86a23.32,23.32,0,0,0,16.75-7.15L222.75,218l.45-.49c20.14-23,14-51.08-2.53-66.92a47.22,47.22,0,0,0-31.22-13.4,46.39,46.39,0,0,0-25.14,6.59c-19.62-11.69-42-6.58-56.22,6.42A47.39,47.39,0,0,0,92.67,180.6c-1.22,12.78,2.94,25.35,12,36.36.28.35.58.7.9,1l41.83,43.72a23.26,23.26,0,0,0,16.74,7.15Zm-35.82-96.55c5.85-5.36,16-8.34,25.24.9a15,15,0,0,0,20.91.25c12.45-11.83,22.59-4,25.4-1.25,5.73,5.51,9.38,15.41.92,25.3l-36.65,38.3-36.49-38.14c-10.7-13.16-2.21-22.73.67-25.36Z" transform="translate(0)"/></svg>