<svg id="Layer_1" enable-background="new 0 0 511.985 511.985" height="512" viewBox="0 0 511.985 511.985" width="512" xmlns="http://www.w3.org/2000/svg"><g><path d="m437.006 74.979c-48.35-48.351-112.636-74.979-181.014-74.979s-132.663 26.628-181.013 74.979-74.979 112.635-74.979 181.014c0 68.378 26.628 132.663 74.979 181.014s112.636 74.979 181.014 74.979 132.663-26.628 181.014-74.979 74.979-112.636 74.979-181.014c-.001-68.379-26.629-132.664-74.98-181.014zm-21.213 340.814c-42.685 42.684-99.436 66.191-159.801 66.191s-117.116-23.507-159.801-66.191c-42.683-42.684-66.191-99.436-66.191-159.8s23.508-117.117 66.192-159.801c42.684-42.685 99.436-66.192 159.8-66.192s117.116 23.507 159.801 66.192c42.684 42.684 66.191 99.436 66.191 159.801s-23.507 117.116-66.191 159.8z"/><path d="m381.772 304.052h-251.543c-8.284 0-15 6.716-15 15 0 67.788 63.15 122.938 140.771 122.938 30.422 0 58.62-8.474 81.666-22.857.918-.457 1.796-1.02 2.626-1.677 34.268-22.444 56.48-58.2 56.48-98.403 0-8.285-6.716-15.001-15-15.001zm-174.072 98.623c14.189-9.674 30.133-14.44 48.3-14.44 18.448 0 34.468 4.734 48.53 14.342-14.665 6.022-31.132 9.412-48.53 9.412-17.305 0-33.693-3.351-48.3-9.314zm124.71-16.415c-21.39-18.603-47.032-28.024-76.41-28.024-29.02 0-54.615 9.461-76.26 28.147-17.145-13.675-29.101-31.889-33.07-52.331h218.66c-3.958 20.381-15.857 38.546-32.92 52.208z"/><path d="m404.424 150.564c-8.634-8.289-19.724-13.046-31.227-13.395-8.775-.269-17.302 1.988-25.139 6.59-19.618-11.688-42.016-6.582-56.21 6.414-8.855 8.106-14.334 18.91-15.429 30.42-1.216 12.789 2.951 25.361 12.051 36.38.277.346.57.682.881 1.006.93.972 21.841 22.828 35.684 37.296l6.148 6.426c4.351 4.547 10.454 7.156 16.743 7.156s12.393-2.608 16.744-7.157l41.831-43.724c.154-.161.304-.325.45-.492 20.135-23.011 13.97-51.083-2.527-66.92zm-19.855 46.94-36.643 38.301-1.214-1.269c-12.974-13.56-32.155-33.608-35.283-36.877-10.694-13.154-2.203-22.722.677-25.358 5.847-5.354 15.965-8.33 25.234.903 5.755 5.732 15.027 5.842 20.916.249 12.449-11.823 22.583-3.942 25.393-1.246 5.736 5.507 9.384 15.412.92 25.297z"/><path d="m164.168 268.856c6.29 0 12.394-2.609 16.744-7.156l41.832-43.724c.154-.161.304-.325.45-.492 20.135-23.011 13.97-51.083-2.526-66.92-8.634-8.289-19.724-13.046-31.227-13.395-8.774-.269-17.302 1.988-25.139 6.59-19.618-11.688-42.016-6.582-56.211 6.414-8.855 8.107-14.334 18.911-15.428 30.421-1.214 12.78 2.945 25.345 12.034 36.359.282.353.581.696.897 1.026 1.083 1.132 29.278 30.601 41.832 43.721 4.349 4.548 10.452 7.156 16.742 7.156zm-35.821-96.555c5.848-5.354 15.966-8.331 25.235.902 5.755 5.732 15.026 5.842 20.916.249 12.45-11.823 22.583-3.942 25.393-1.246 5.737 5.508 9.383 15.413.92 25.297l-36.644 38.302c-12.951-13.536-33.256-34.759-36.494-38.143-10.696-13.156-2.205-22.725.674-25.361z"/></g></svg>