<svg id="Layer_1" enable-background="new 0 0 511.985 511.985" height="512" viewBox="0 0 511.985 511.985" width="512" xmlns="http://www.w3.org/2000/svg"><g><path d="m437.006 74.979c-48.35-48.351-112.636-74.979-181.014-74.979s-132.663 26.628-181.013 74.979-74.979 112.635-74.979 181.014c0 68.378 26.628 132.663 74.979 181.014s112.636 74.979 181.014 74.979 132.663-26.628 181.014-74.979 74.979-112.636 74.979-181.014-26.629-132.664-74.98-181.014zm-21.213 340.814c-42.685 42.685-99.437 66.192-159.801 66.192-60.365 0-117.116-23.507-159.801-66.191-42.683-42.685-66.191-99.437-66.191-159.801s23.508-117.117 66.192-159.801c42.684-42.685 99.436-66.192 159.8-66.192s117.116 23.507 159.801 66.192c42.684 42.684 66.191 99.436 66.191 159.801s-23.507 117.116-66.191 159.8z"/><path d="m165.032 248.341c28.474 0 51.64-23.166 51.64-51.64s-23.166-51.64-51.64-51.64-51.64 23.166-51.64 51.64 23.166 51.64 51.64 51.64zm0-73.279c11.932 0 21.64 9.708 21.64 21.64s-9.708 21.64-21.64 21.64-21.64-9.708-21.64-21.64 9.708-21.64 21.64-21.64z"/><path d="m345.361 248.341c28.475 0 51.64-23.166 51.64-51.64s-23.165-51.64-51.64-51.64-51.64 23.166-51.64 51.64 23.165 51.64 51.64 51.64zm0-73.279c11.933 0 21.64 9.708 21.64 21.64s-9.707 21.64-21.64 21.64-21.64-9.708-21.64-21.64 9.707-21.64 21.64-21.64z"/><path d="m342.69 281.366h-173.379c-37.332 0-67.704 30.372-67.705 67.704v.001c0 37.333 30.372 67.705 67.705 67.705h173.379c37.332 0 67.704-30.373 67.704-67.705s-30.372-67.705-67.704-67.705zm34.583 52.704h-37.097v-22.705h2.514c15.461.001 28.772 9.359 34.583 22.705zm-180.075 30h41.489v22.705h-41.489zm0-52.704h41.489v22.705h-41.489zm71.49 52.704h41.488v22.705h-41.488zm0-30v-22.705h41.488v22.705zm-101.49-22.642v22.642h-32.471c5.544-12.734 17.917-21.834 32.471-22.642zm-32.471 52.642h32.471v22.643c-14.554-.808-26.927-9.908-32.471-22.643zm207.963 22.705h-2.514v-22.705h37.097c-5.811 13.347-19.122 22.705-34.583 22.705z"/></g></svg>