<svg id="Layer_1" data-name="Layer 1" xmlns="http://www.w3.org/2000/svg" viewBox="0 0 512 512"><title>super-happy2</title><path d="M437,75A256,256,0,0,0,75,437,256,256,0,0,0,437,75ZM415.81,415.8A226,226,0,1,1,96.2,96.2,226,226,0,1,1,415.8,415.8Z"/><path d="M129.2,215.71a15,15,0,0,0,15-15,21.64,21.64,0,1,1,43.28,0,15,15,0,0,0,30,0,51.64,51.64,0,1,0-103.28,0,15,15,0,0,0,15,15Z"/><path d="M309.53,215.71a15,15,0,0,0,15-15,21.65,21.65,0,0,1,43.29,0,15,15,0,0,0,30,0,51.65,51.65,0,0,0-103.29,0A15,15,0,0,0,309.53,215.71Z"/><path d="M392,235.41a53,53,0,0,0-32.24,95.16C336.65,365.1,298.9,385.3,256.2,385.3s-80.58-20.51-104.07-55.54a53,53,0,1,0-33.28,11.78c1.7,0,3.38-.09,5-.25a157.42,157.42,0,0,0,50.85,51.09,154.69,154.69,0,0,0,81.46,22.93c55.37,0,104-27.42,132.27-73.91,1.17.08,2.36.14,3.55.14a53.07,53.07,0,0,0,0-106.13ZM95.8,288.47a23.06,23.06,0,1,1,23.06,23.06A23.09,23.09,0,0,1,95.8,288.47ZM392,311.53a22.87,22.87,0,0,1-5.77-.73,16,16,0,0,1-2.15-.67,23.07,23.07,0,1,1,7.92,1.4Z"/></svg>