<svg id="Layer_1" data-name="Layer 1" xmlns="http://www.w3.org/2000/svg" viewBox="0 0 512 512"><defs><style>.cls-1{fill:#d9e4e8;}.cls-1,.cls-3{fill-rule:evenodd;}.cls-2{fill:#fff;}.cls-3{fill:#f4607f;}.cls-4{fill:#141f38;}</style></defs><title>envelope-open-heart-filled</title><path class="cls-1" d="M64,499.2A51.26,51.26,0,0,1,12.8,448V224a51.45,51.45,0,0,1,20.48-41l.51-.4L224,24.15a50.67,50.67,0,0,1,64,.09l190.14,158.4c.17.14.34.28.51.4a51.45,51.45,0,0,1,20.48,41V448A51.26,51.26,0,0,1,448,499.2Z"/><path class="cls-2" d="M89.6,273.45,256,409.6,422.4,273.45V108.8A44.8,44.8,0,0,0,377.6,64H134.4a44.8,44.8,0,0,0-44.8,44.8Z"/><path class="cls-1" d="M64,499.2c-1.93,0-3.82-.17-5.7-.35a49,49,0,0,1-28.83-14.21l193-153.19a54.72,54.72,0,0,1,67,0l193,153.18a49.25,49.25,0,0,1-29.09,14.24c-1.61.15-3.5.33-5.43.33Z"/><path class="cls-3" d="M320,173.34a31,31,0,0,1-5.88,18.17c-.69,1-1.48,1.9-2.27,2.83l-.25.29c-7.94,8.54-16.11,16.88-23.86,25.59-5.65,6.36-11,14.14-18.28,18.94a25.56,25.56,0,0,1-13.67,4c-12.79,0-20.62-10.62-28.17-18.89s-15.32-16.64-23-24.92c-1.94-2.08-3.86-4.17-5.79-6.26a5.08,5.08,0,0,1-.49-.61l-1-1.3a30.51,30.51,0,0,1-5.73-17.89c0-18,15.46-32.54,34.57-32.54a34.93,34.93,0,0,1,29.63,15.8,34.93,34.93,0,0,1,29.63-15.8C304.54,140.8,320,155.35,320,173.34Z"/><path class="cls-4" d="M195.24,208.12q11.53,12.36,22.94,24.82l2.42,2.7c7.63,8.59,18.09,20.36,35.2,20.36a38.49,38.49,0,0,0,20.73-6.17c7-4.65,12.25-10.93,16.85-16.48,1.32-1.59,2.62-3.16,3.93-4.63,4.95-5.56,10.07-11,15.2-16.38,2.83-3,5.67-6,8.47-9l.61-.69c1-1.22,2.07-2.46,2.94-3.68a43.75,43.75,0,0,0,8.28-25.64c0-25-21.25-45.34-47.37-45.34a48.41,48.41,0,0,0-29.63,9.91A48.41,48.41,0,0,0,226.17,128c-26.12,0-47.37,20.34-47.37,45.34a43.49,43.49,0,0,0,8.31,25.59Zm30.93-54.53A22.28,22.28,0,0,1,245,163.47l10.81,17,10.81-17a22.28,22.28,0,0,1,18.83-9.87c12,0,21.77,8.86,21.77,19.74a18.35,18.35,0,0,1-3.52,10.78c-.47.66-1,1.28-1.45,1.79q-4.13,4.44-8.32,8.83c-5.3,5.61-10.61,11.21-15.74,17-1.5,1.69-3,3.47-4.48,5.28-3.81,4.59-7.4,8.92-11.28,11.48a12.75,12.75,0,0,1-6.61,1.92c-5.24,0-9.57-4.44-16.07-11.76l-2.65-3q-11.48-12.57-23.12-25l-5.53-6-.7-.92a17.82,17.82,0,0,1-3.34-10.44C204.4,162.46,214.16,153.6,226.17,153.6Z"/><path class="cls-4" d="M486.4,172.8l-51.2-42.65V108.8a57.66,57.66,0,0,0-57.6-57.6H340.43L296.15,14.31a63.48,63.48,0,0,0-80.3,0L171.57,51.2H134.4a57.67,57.67,0,0,0-57.6,57.6v21.35L25.6,172.8A64,64,0,0,0,0,224V448a64,64,0,0,0,61.85,63.95c.71,0,1.43.05,2.15.05H448c.72,0,1.44,0,2.15-.05A64,64,0,0,0,512,448V224A64,64,0,0,0,486.4,172.8Zm-145,183.49,93.82-76.76v-.34l51.2-42V448a38.15,38.15,0,0,1-5.19,19.25ZM470,192.47q.5.42,1,.81a38.41,38.41,0,0,1,11.5,14c-.19.14-.38.26-.56.41L435.2,246.07v-82.6ZM232,34.16A37.88,37.88,0,0,1,279.76,34L300.44,51.2H211.56ZM134.4,76.8H377.6a32,32,0,0,1,32,32V267.06L325.92,335.7a12.87,12.87,0,0,0-1.21,1.14L320.85,340l-23.41-18.58a67.5,67.5,0,0,0-82.89,0L191.15,340l-3.86-3.16a12.87,12.87,0,0,0-1.2-1.14L102.4,267.07V108.8A32,32,0,0,1,134.4,76.8ZM30.79,467.25A38.15,38.15,0,0,1,25.6,448V237.19l51.2,42v.34l93.82,76.76ZM41,193.28q.52-.39,1-.81l34.81-29v82.61L30,207.7c-.18-.15-.37-.27-.55-.41A38.41,38.41,0,0,1,41,193.28ZM64,486.4l-1,0c-1,0-2.12-.14-3.16-.24A34.68,34.68,0,0,1,51,483.87l179.44-142.4a41.91,41.91,0,0,1,51.06,0L461,483.87a34.67,34.67,0,0,1-8.79,2.26c-1,.1-2.15.2-3.16.24l-1,0Z"/></svg>