<svg xmlns="http://www.w3.org/2000/svg" xmlns:xlink="http://www.w3.org/1999/xlink" xmlns:fi="http://pattern.flaticon.com/" x="0" y="0" width="700" height="350" viewBox="0 0 700 350"><rect x="0px" y="0px" width="100%" height="100%" opacity="1" fill="#ffffff"/><defs><g transform="matrix(0.1171877309679985 0 0 0.1171877309679985 217.00000041484918 191)" id="L1_6"><path d="M412.41,0H99.589C47.531,0,5.332,42.201,5.332,94.257v205.172c0,52.057,42.201,94.257,94.257,94.257  h44.894c2.136,0,3.867,1.731,3.867,3.867v101.207c0,11.966,14.637,17.768,22.834,9.05l106.188-112.906  c0.731-0.778,1.751-1.218,2.818-1.218h132.22c52.057,0,94.257-42.201,94.257-94.257V94.257C506.667,42.201,464.466,0,412.41,0z" fill="#ec5569"/><path d="M188.005,358.509c0-2.249-1.676-4.072-3.744-4.072h-43.462c-50.396,0-91.25-44.439-91.25-99.257  V39.123c0-9.276,1.174-18.253,3.361-26.77C24.489,28.587,5.332,59.184,5.332,94.257v205.172c0,52.056,42.201,94.257,94.257,94.257  h44.894c2.136,0,3.867,1.732,3.867,3.867v101.207c0,11.966,14.637,17.768,22.834,9.05l16.82-17.885V358.509H188.005z" fill="#e63950"/><path d="M361.908,122.325L361.908,122.325c-23.931-23.931-62.731-23.931-86.663,0l-13.518,13.518  c-3.223,3.223-8.45,3.223-11.673,0l-13.302-13.302c-23.931-23.931-62.731-23.931-86.663,0l0,0  c-23.931,23.931-23.931,62.731,0,86.663l99.973,99.973c3.223,3.223,8.45,3.223,11.673,0l100.172-100.189  C385.839,185.056,385.839,146.257,361.908,122.325z" fill="#ec5569"/><path d="M361.908,122.325L361.908,122.325c-23.931-23.931-62.731-23.931-86.663,0l-13.518,13.518  c-3.223,3.223-8.45,3.223-11.673,0l-13.302-13.302c-23.931-23.931-62.731-23.931-86.663,0l0,0  c-23.931,23.931-23.931,62.731,0,86.663l99.973,99.973c3.223,3.223,8.45,3.223,11.673,0l100.172-100.189  C385.839,185.056,385.839,146.257,361.908,122.325z" fill="#fff5f5"/><path d="M182.145,209.204c-23.931-23.931-23.931-62.731,0-86.663l0,0c7.85-7.85,17.304-13.108,27.303-15.807  c-20.486-5.532-43.278-0.274-59.358,15.807l0,0c-23.931,23.931-23.931,62.731,0,86.663l99.973,99.973  c3.223,3.223,8.45,3.223,11.673,0l10.19-10.192L182.145,209.204z" fill="#dce6eb"/></g><g transform="matrix(0.1171875 0 0 0.1171875 -16 135)" id="L1_8"><path d="M407.815,0h-303.63c-21.38,0-41.736,6.707-58.87,19.394c-3.341,2.474-4.044,7.188-1.57,10.529s7.188,4.042,10.529,1.57    c14.522-10.754,31.781-16.439,49.911-16.439h303.629c46.296,0,83.96,37.665,83.96,83.96v199.144    c0,46.296-37.665,83.96-83.96,83.96H279.48c-3.101,0-6.097,1.296-8.217,3.553l-103.068,109.59    c-2.225,2.364-4.805,1.693-5.81,1.296c-1.006-0.398-3.345-1.676-3.345-4.924V393.4c0-6.22-5.06-11.28-11.28-11.28h-43.575    c-46.296,0-83.961-37.665-83.961-83.96V99.014c0-17.032,5.069-33.429,14.66-47.417c2.35-3.429,1.477-8.113-1.951-10.464    c-3.427-2.351-8.114-1.476-10.464,1.951C11.153,59.59,5.171,78.93,5.171,99.014v199.144c0,54.596,44.418,99.014,99.015,99.014    h39.801v94.461c0,8.398,5.044,15.824,12.851,18.918c2.461,0.975,5.017,1.449,7.543,1.449c5.489,0,10.84-2.237,14.78-6.425    l101.95-108.402h126.704c54.596,0,99.014-44.418,99.014-99.014V99.014C506.829,44.418,462.412,0,407.815,0z"/><path d="M364.119,120.935c-26.124-26.125-68.635-26.123-94.761,0l-13.119,13.12c-0.035,0.035-0.143,0.143-0.344,0.143    c-0.2,0-0.307-0.106-0.342-0.143l-12.911-12.91c-26.125-26.125-68.635-26.124-94.76,0c-26.125,26.125-26.125,68.636,0,94.761    l97.035,97.035c2.935,2.935,6.837,4.551,10.987,4.551s8.053-1.617,10.987-4.552l53.325-53.334c2.94-2.94,2.94-7.706-0.001-10.644    c-2.94-2.939-7.707-2.94-10.644,0.001l-53.325,53.334c-0.035,0.035-0.143,0.141-0.342,0.141c-0.201,0-0.308-0.106-0.343-0.143    l-97.035-97.035c-20.256-20.257-20.256-53.215,0-73.472s53.215-20.255,73.471,0l12.91,12.91c2.935,2.935,6.837,4.552,10.987,4.552    c4.151,0,8.052-1.616,10.988-4.551l13.12-13.12c20.26-20.255,53.216-20.255,73.472,0c20.256,20.256,20.256,53.214,0,73.472    l-22.472,22.477c-2.94,2.94-2.94,7.706,0.001,10.644c2.94,2.939,7.706,2.94,10.644-0.001l22.473-22.476    C390.244,189.57,390.244,147.06,364.119,120.935z"/></g><g transform="matrix(0.12931033968925476 0 0 0.12931033968925476 126 101)" id="L1_9"><path d="m408 80c-40 0-51.945312 28.566406-64 40-12.054688-11.433594-24-40-64-40-37.128906 0-56 42.871094-56 80 0 64 120 136 120 136s120-72 120-136c0-37.128906-18.871094-80-56-80zm0 0" fill="#dd3e46"/><path d="m184 0c-40 0-51.945312 28.566406-64 40-12.054688-11.433594-24-40-64-40-37.128906 0-56 42.871094-56 80 0 64 120 136 120 136s120-72 120-136c0-37.128906-18.871094-80-56-80zm0 0" fill="#f98c96"/><path d="m296 248c-40 0-51.945312 28.566406-64 40-12.054688-11.433594-24-40-64-40-37.128906 0-56 42.871094-56 80 0 64 120 136 120 136s120-72 120-136c0-37.128906-18.871094-80-56-80zm0 0" fill="#f98c96"/><g fill="#ffffff"><path d="m132.441406 174.65625-8.882812-13.3125c.679687-.457031 68.441406-46.207031 68.441406-89.34375h16c0 51.6875-72.480469 100.601562-75.558594 102.65625zm0 0"/><path d="m208 48h-16c.207031-2.195312-.582031-4.367188-2.152344-5.917969-1.570312-1.550781-3.75-2.316406-5.945312-2.082031l.097656-16c6.421875-.1875 12.636719 2.28125 17.175781 6.824219 4.542969 4.539062 7.011719 10.753906 6.824219 17.175781zm0 0"/><path d="m356.441406 254.65625-8.882812-13.3125c.679687-.457031 68.441406-46.207031 68.441406-89.34375h16c0 51.6875-72.480469 100.601562-75.558594 102.65625zm0 0"/><path d="m432 128h-16c.207031-2.195312-.582031-4.367188-2.152344-5.917969-1.570312-1.550781-3.75-2.316406-5.945312-2.082031l.097656-16c6.421875-.1875 12.636719 2.28125 17.175781 6.824219 4.542969 4.539062 7.011719 10.753906 6.824219 17.175781zm0 0"/><path d="m244.441406 422.65625-8.882812-13.3125c.679687-.457031 68.441406-46.207031 68.441406-89.34375h16c0 51.6875-72.480469 100.601562-75.558594 102.65625zm0 0"/><path d="m320 296h-16c.207031-2.195312-.582031-4.367188-2.152344-5.917969-1.570312-1.550781-3.75-2.316406-5.945312-2.082031l.097656-16c6.421875-.1875 12.636719 2.28125 17.175781 6.824219 4.542969 4.539062 7.011719 10.753906 6.824219 17.175781zm0 0"/></g></g><g transform="matrix(0.1171875 0 0 0.1171875 168 261)" id="L1_10"><path d="M407.252,8.241H103.623c-50.527,0-91.487,40.961-91.487,91.487v199.144  c0,50.528,40.961,91.487,91.487,91.487h43.575c2.073,0,3.753,1.681,3.753,3.753v98.233c0,11.615,14.207,17.246,22.163,8.784  l103.067-109.59c0.71-0.755,1.699-1.182,2.735-1.182h128.335c50.528,0,91.487-40.961,91.487-91.487V99.729  C498.741,49.201,457.78,8.241,407.252,8.241z" fill="#ec5569"/><path d="M189.442,356.215c0-2.183-1.627-3.952-3.634-3.952h-42.185c-48.915,0-88.569-43.133-88.569-96.341  V46.215c0-9.003,1.139-17.716,3.263-25.983C30.731,35.988,12.135,65.686,12.135,99.729v199.144  c0,50.527,40.961,91.487,91.487,91.487h43.575c2.073,0,3.753,1.681,3.753,3.753v98.233c0,11.615,14.207,17.246,22.163,8.784  l16.325-17.359V356.215H189.442z" fill="#e63950"/><path d="M358.235,126.972L358.235,126.972c-23.228-23.228-60.888-23.228-84.116,0l-13.121,13.121  c-3.128,3.128-8.201,3.128-11.33,0l-12.911-12.911c-23.228-23.228-60.888-23.228-84.116,0l0,0  c-23.228,23.228-23.228,60.888,0,84.116l97.035,97.035c3.128,3.128,8.201,3.128,11.33,0l97.229-97.245  C381.463,187.86,381.463,150.2,358.235,126.972z" fill="#ec5569"/><path d="M358.235,126.972L358.235,126.972c-23.228-23.228-60.888-23.228-84.116,0l-13.121,13.121  c-3.128,3.128-8.201,3.128-11.33,0l-12.911-12.911c-23.228-23.228-60.888-23.228-84.116,0l0,0  c-23.228,23.228-23.228,60.888,0,84.116l97.035,97.035c3.128,3.128,8.201,3.128,11.33,0l97.229-97.245  C381.463,187.86,381.463,150.2,358.235,126.972z" fill="#fff5f5"/><path d="M183.755,211.298c-23.228-23.228-23.228-60.888,0-84.116l0,0  c7.619-7.619,16.795-12.723,26.501-15.343c-19.884-5.369-42.006-0.266-57.614,15.343l0,0c-23.228,23.228-23.228,60.888,0,84.116  l97.035,97.035c3.128,3.128,8.201,3.128,11.33,0l9.89-9.892L183.755,211.298z" fill="#dce6eb"/><path d="M407.815,0h-303.63c-21.379,0-41.736,6.707-58.87,19.394c-3.341,2.474-4.043,7.188-1.57,10.529  c2.474,3.341,7.188,4.042,10.529,1.57c14.522-10.754,31.781-16.439,49.911-16.439h303.629c46.296,0,83.96,37.665,83.96,83.96  v199.144c0,46.296-37.665,83.96-83.96,83.96H279.48c-3.101,0-6.097,1.296-8.217,3.553l-103.068,109.59  c-2.225,2.364-4.805,1.693-5.81,1.296c-1.006-0.398-3.345-1.676-3.345-4.924V393.4c0-6.22-5.06-11.28-11.28-11.28h-43.575  c-46.296,0-83.961-37.665-83.961-83.96V99.014c0-17.032,5.069-33.429,14.66-47.417c2.35-3.429,1.477-8.113-1.951-10.464  c-3.427-2.351-8.114-1.476-10.464,1.951C11.153,59.59,5.171,78.93,5.171,99.014v199.144c0,54.596,44.418,99.014,99.015,99.014  h39.801v94.461c0,8.398,5.044,15.824,12.851,18.918c2.461,0.975,5.017,1.449,7.543,1.449c5.489,0,10.84-2.237,14.78-6.425  l101.95-108.402h126.704c54.596,0,99.014-44.418,99.014-99.014V99.014C506.829,44.418,462.412,0,407.815,0z"/><path d="M331.001,227.529c-2.94,2.94-2.94,7.706,0.001,10.644c2.94,2.939,7.706,2.94,10.644-0.001l22.473-22.476  c26.124-26.125,26.124-68.636-0.001-94.761c-26.124-26.125-68.635-26.123-94.761,0l-13.119,13.12  c-0.035,0.035-0.144,0.143-0.344,0.143c-0.2,0-0.307-0.106-0.342-0.143l-12.911-12.91c-26.125-26.125-68.635-26.124-94.76,0  c-26.125,26.125-26.125,68.636,0,94.761l97.035,97.035c2.934,2.935,6.837,4.551,10.987,4.551c4.15,0,8.053-1.617,10.987-4.552  l53.325-53.334c2.94-2.94,2.94-7.706-0.001-10.644c-2.94-2.939-7.707-2.94-10.644,0.001l-53.325,53.334  c-0.035,0.035-0.143,0.142-0.342,0.142c-0.201,0-0.308-0.106-0.343-0.143l-97.035-97.035c-20.256-20.256-20.256-53.215,0-73.472  s53.215-20.255,73.471,0l12.91,12.91c2.934,2.936,6.837,4.552,10.987,4.552c4.151,0,8.052-1.616,10.988-4.551l13.12-13.12  c20.26-20.255,53.216-20.254,73.472,0c20.256,20.256,20.256,53.214,0,73.472L331.001,227.529z"/></g><g transform="matrix(0.1171877309679985 0 0 0.1171877309679985 5.000000829698365 35)" id="L1_11"><path d="M412.41,0H99.589C47.531,0,5.332,42.201,5.332,94.257v205.172c0,52.057,42.201,94.257,94.257,94.257  h44.894c2.136,0,3.867,1.731,3.867,3.867v101.207c0,11.966,14.637,17.768,22.834,9.05l106.188-112.906  c0.731-0.778,1.751-1.218,2.818-1.218h132.22c52.057,0,94.257-42.201,94.257-94.257V94.257C506.667,42.201,464.466,0,412.41,0z" fill="#ec5569"/><path d="M188.005,358.509c0-2.249-1.676-4.072-3.744-4.072h-43.462c-50.396,0-91.25-44.439-91.25-99.257  V39.123c0-9.276,1.174-18.253,3.361-26.77C24.489,28.587,5.332,59.184,5.332,94.257v205.172c0,52.056,42.201,94.257,94.257,94.257  h44.894c2.136,0,3.867,1.732,3.867,3.867v101.207c0,11.966,14.637,17.768,22.834,9.05l16.82-17.885V358.509H188.005z" fill="#e63950"/><path d="M361.908,122.325L361.908,122.325c-23.931-23.931-62.731-23.931-86.663,0l-13.518,13.518  c-3.223,3.223-8.45,3.223-11.673,0l-13.302-13.302c-23.931-23.931-62.731-23.931-86.663,0l0,0  c-23.931,23.931-23.931,62.731,0,86.663l99.973,99.973c3.223,3.223,8.45,3.223,11.673,0l100.172-100.189  C385.839,185.056,385.839,146.257,361.908,122.325z" fill="#ec5569"/><path d="M361.908,122.325L361.908,122.325c-23.931-23.931-62.731-23.931-86.663,0l-13.518,13.518  c-3.223,3.223-8.45,3.223-11.673,0l-13.302-13.302c-23.931-23.931-62.731-23.931-86.663,0l0,0  c-23.931,23.931-23.931,62.731,0,86.663l99.973,99.973c3.223,3.223,8.45,3.223,11.673,0l100.172-100.189  C385.839,185.056,385.839,146.257,361.908,122.325z" fill="#fff5f5"/><path d="M182.145,209.204c-23.931-23.931-23.931-62.731,0-86.663l0,0c7.85-7.85,17.304-13.108,27.303-15.807  c-20.486-5.532-43.278-0.274-59.358,15.807l0,0c-23.931,23.931-23.931,62.731,0,86.663l99.973,99.973  c3.223,3.223,8.45,3.223,11.673,0l10.19-10.192L182.145,209.204z" fill="#dce6eb"/></g><g transform="matrix(0.1171875 0 0 0.1171875 260 24)" id="L1_12"><path d="M407.815,0h-303.63c-21.38,0-41.736,6.707-58.87,19.394c-3.341,2.474-4.044,7.188-1.57,10.529s7.188,4.042,10.529,1.57    c14.522-10.754,31.781-16.439,49.911-16.439h303.629c46.296,0,83.96,37.665,83.96,83.96v199.144    c0,46.296-37.665,83.96-83.96,83.96H279.48c-3.101,0-6.097,1.296-8.217,3.553l-103.068,109.59    c-2.225,2.364-4.805,1.693-5.81,1.296c-1.006-0.398-3.345-1.676-3.345-4.924V393.4c0-6.22-5.06-11.28-11.28-11.28h-43.575    c-46.296,0-83.961-37.665-83.961-83.96V99.014c0-17.032,5.069-33.429,14.66-47.417c2.35-3.429,1.477-8.113-1.951-10.464    c-3.427-2.351-8.114-1.476-10.464,1.951C11.153,59.59,5.171,78.93,5.171,99.014v199.144c0,54.596,44.418,99.014,99.015,99.014    h39.801v94.461c0,8.398,5.044,15.824,12.851,18.918c2.461,0.975,5.017,1.449,7.543,1.449c5.489,0,10.84-2.237,14.78-6.425    l101.95-108.402h126.704c54.596,0,99.014-44.418,99.014-99.014V99.014C506.829,44.418,462.412,0,407.815,0z"/><path d="M364.119,120.935c-26.124-26.125-68.635-26.123-94.761,0l-13.119,13.12c-0.035,0.035-0.143,0.143-0.344,0.143    c-0.2,0-0.307-0.106-0.342-0.143l-12.911-12.91c-26.125-26.125-68.635-26.124-94.76,0c-26.125,26.125-26.125,68.636,0,94.761    l97.035,97.035c2.935,2.935,6.837,4.551,10.987,4.551s8.053-1.617,10.987-4.552l53.325-53.334c2.94-2.94,2.94-7.706-0.001-10.644    c-2.94-2.939-7.707-2.94-10.644,0.001l-53.325,53.334c-0.035,0.035-0.143,0.141-0.342,0.141c-0.201,0-0.308-0.106-0.343-0.143    l-97.035-97.035c-20.256-20.257-20.256-53.215,0-73.472s53.215-20.255,73.471,0l12.91,12.91c2.935,2.935,6.837,4.552,10.987,4.552    c4.151,0,8.052-1.616,10.988-4.551l13.12-13.12c20.26-20.255,53.216-20.255,73.472,0c20.256,20.256,20.256,53.214,0,73.472    l-22.472,22.477c-2.94,2.94-2.94,7.706,0.001,10.644c2.94,2.939,7.706,2.94,10.644-0.001l22.473-22.476    C390.244,189.57,390.244,147.06,364.119,120.935z"/></g><g transform="matrix(0.1171875 0 0 0.1171875 270 34)"><path d="M407.815,0h-303.63c-21.38,0-41.736,6.707-58.87,19.394c-3.341,2.474-4.044,7.188-1.57,10.529s7.188,4.042,10.529,1.57    c14.522-10.754,31.781-16.439,49.911-16.439h303.629c46.296,0,83.96,37.665,83.96,83.96v199.144    c0,46.296-37.665,83.96-83.96,83.96H279.48c-3.101,0-6.097,1.296-8.217,3.553l-103.068,109.59    c-2.225,2.364-4.805,1.693-5.81,1.296c-1.006-0.398-3.345-1.676-3.345-4.924V393.4c0-6.22-5.06-11.28-11.28-11.28h-43.575    c-46.296,0-83.961-37.665-83.961-83.96V99.014c0-17.032,5.069-33.429,14.66-47.417c2.35-3.429,1.477-8.113-1.951-10.464    c-3.427-2.351-8.114-1.476-10.464,1.951C11.153,59.59,5.171,78.93,5.171,99.014v199.144c0,54.596,44.418,99.014,99.015,99.014    h39.801v94.461c0,8.398,5.044,15.824,12.851,18.918c2.461,0.975,5.017,1.449,7.543,1.449c5.489,0,10.84-2.237,14.78-6.425    l101.95-108.402h126.704c54.596,0,99.014-44.418,99.014-99.014V99.014C506.829,44.418,462.412,0,407.815,0z"/><path d="M364.119,120.935c-26.124-26.125-68.635-26.123-94.761,0l-13.119,13.12c-0.035,0.035-0.143,0.143-0.344,0.143    c-0.2,0-0.307-0.106-0.342-0.143l-12.911-12.91c-26.125-26.125-68.635-26.124-94.76,0c-26.125,26.125-26.125,68.636,0,94.761    l97.035,97.035c2.935,2.935,6.837,4.551,10.987,4.551s8.053-1.617,10.987-4.552l53.325-53.334c2.94-2.94,2.94-7.706-0.001-10.644    c-2.94-2.939-7.707-2.94-10.644,0.001l-53.325,53.334c-0.035,0.035-0.143,0.141-0.342,0.141c-0.201,0-0.308-0.106-0.343-0.143    l-97.035-97.035c-20.256-20.257-20.256-53.215,0-73.472s53.215-20.255,73.471,0l12.91,12.91c2.935,2.935,6.837,4.552,10.987,4.552    c4.151,0,8.052-1.616,10.988-4.551l13.12-13.12c20.26-20.255,53.216-20.255,73.472,0c20.256,20.256,20.256,53.214,0,73.472    l-22.472,22.477c-2.94,2.94-2.94,7.706,0.001,10.644c2.94,2.939,7.706,2.94,10.644-0.001l22.473-22.476    C390.244,189.57,390.244,147.06,364.119,120.935z"/></g><g transform="matrix(0.1171875 0 0 0.1171875 165 45)"><path d="M407.252,8.241H103.623c-50.527,0-91.487,40.961-91.487,91.487v199.144  c0,50.528,40.961,91.487,91.487,91.487h43.575c2.073,0,3.753,1.681,3.753,3.753v98.233c0,11.615,14.207,17.246,22.163,8.784  l103.067-109.59c0.71-0.755,1.699-1.182,2.735-1.182h128.335c50.528,0,91.487-40.961,91.487-91.487V99.729  C498.741,49.201,457.78,8.241,407.252,8.241z" fill="#ec5569"/><path d="M189.442,356.215c0-2.183-1.627-3.952-3.634-3.952h-42.185c-48.915,0-88.569-43.133-88.569-96.341  V46.215c0-9.003,1.139-17.716,3.263-25.983C30.731,35.988,12.135,65.686,12.135,99.729v199.144  c0,50.527,40.961,91.487,91.487,91.487h43.575c2.073,0,3.753,1.681,3.753,3.753v98.233c0,11.615,14.207,17.246,22.163,8.784  l16.325-17.359V356.215H189.442z" fill="#e63950"/><path d="M358.235,126.972L358.235,126.972c-23.228-23.228-60.888-23.228-84.116,0l-13.121,13.121  c-3.128,3.128-8.201,3.128-11.33,0l-12.911-12.911c-23.228-23.228-60.888-23.228-84.116,0l0,0  c-23.228,23.228-23.228,60.888,0,84.116l97.035,97.035c3.128,3.128,8.201,3.128,11.33,0l97.229-97.245  C381.463,187.86,381.463,150.2,358.235,126.972z" fill="#ec5569"/><path d="M358.235,126.972L358.235,126.972c-23.228-23.228-60.888-23.228-84.116,0l-13.121,13.121  c-3.128,3.128-8.201,3.128-11.33,0l-12.911-12.911c-23.228-23.228-60.888-23.228-84.116,0l0,0  c-23.228,23.228-23.228,60.888,0,84.116l97.035,97.035c3.128,3.128,8.201,3.128,11.33,0l97.229-97.245  C381.463,187.86,381.463,150.2,358.235,126.972z" fill="#fff5f5"/><path d="M183.755,211.298c-23.228-23.228-23.228-60.888,0-84.116l0,0  c7.619-7.619,16.795-12.723,26.501-15.343c-19.884-5.369-42.006-0.266-57.614,15.343l0,0c-23.228,23.228-23.228,60.888,0,84.116  l97.035,97.035c3.128,3.128,8.201,3.128,11.33,0l9.89-9.892L183.755,211.298z" fill="#dce6eb"/><path d="M407.815,0h-303.63c-21.379,0-41.736,6.707-58.87,19.394c-3.341,2.474-4.043,7.188-1.57,10.529  c2.474,3.341,7.188,4.042,10.529,1.57c14.522-10.754,31.781-16.439,49.911-16.439h303.629c46.296,0,83.96,37.665,83.96,83.96  v199.144c0,46.296-37.665,83.96-83.96,83.96H279.48c-3.101,0-6.097,1.296-8.217,3.553l-103.068,109.59  c-2.225,2.364-4.805,1.693-5.81,1.296c-1.006-0.398-3.345-1.676-3.345-4.924V393.4c0-6.22-5.06-11.28-11.28-11.28h-43.575  c-46.296,0-83.961-37.665-83.961-83.96V99.014c0-17.032,5.069-33.429,14.66-47.417c2.35-3.429,1.477-8.113-1.951-10.464  c-3.427-2.351-8.114-1.476-10.464,1.951C11.153,59.59,5.171,78.93,5.171,99.014v199.144c0,54.596,44.418,99.014,99.015,99.014  h39.801v94.461c0,8.398,5.044,15.824,12.851,18.918c2.461,0.975,5.017,1.449,7.543,1.449c5.489,0,10.84-2.237,14.78-6.425  l101.95-108.402h126.704c54.596,0,99.014-44.418,99.014-99.014V99.014C506.829,44.418,462.412,0,407.815,0z"/><path d="M331.001,227.529c-2.94,2.94-2.94,7.706,0.001,10.644c2.94,2.939,7.706,2.94,10.644-0.001l22.473-22.476  c26.124-26.125,26.124-68.636-0.001-94.761c-26.124-26.125-68.635-26.123-94.761,0l-13.119,13.12  c-0.035,0.035-0.144,0.143-0.344,0.143c-0.2,0-0.307-0.106-0.342-0.143l-12.911-12.91c-26.125-26.125-68.635-26.124-94.76,0  c-26.125,26.125-26.125,68.636,0,94.761l97.035,97.035c2.934,2.935,6.837,4.551,10.987,4.551c4.15,0,8.053-1.617,10.987-4.552  l53.325-53.334c2.94-2.94,2.94-7.706-0.001-10.644c-2.94-2.939-7.707-2.94-10.644,0.001l-53.325,53.334  c-0.035,0.035-0.143,0.142-0.342,0.142c-0.201,0-0.308-0.106-0.343-0.143l-97.035-97.035c-20.256-20.256-20.256-53.215,0-73.472  s53.215-20.255,73.471,0l12.91,12.91c2.934,2.936,6.837,4.552,10.987,4.552c4.151,0,8.052-1.616,10.988-4.551l13.12-13.12  c20.26-20.255,53.216-20.254,73.472,0c20.256,20.256,20.256,53.214,0,73.472L331.001,227.529z"/></g><g transform="matrix(0.12931033968925476 0 0 0.12931033968925476 35 235)"><path d="m408 80c-40 0-51.945312 28.566406-64 40-12.054688-11.433594-24-40-64-40-37.128906 0-56 42.871094-56 80 0 64 120 136 120 136s120-72 120-136c0-37.128906-18.871094-80-56-80zm0 0" fill="#dd3e46"/><path d="m184 0c-40 0-51.945312 28.566406-64 40-12.054688-11.433594-24-40-64-40-37.128906 0-56 42.871094-56 80 0 64 120 136 120 136s120-72 120-136c0-37.128906-18.871094-80-56-80zm0 0" fill="#f98c96"/><path d="m296 248c-40 0-51.945312 28.566406-64 40-12.054688-11.433594-24-40-64-40-37.128906 0-56 42.871094-56 80 0 64 120 136 120 136s120-72 120-136c0-37.128906-18.871094-80-56-80zm0 0" fill="#f98c96"/><g fill="#ffffff"><path d="m132.441406 174.65625-8.882812-13.3125c.679687-.457031 68.441406-46.207031 68.441406-89.34375h16c0 51.6875-72.480469 100.601562-75.558594 102.65625zm0 0"/><path d="m208 48h-16c.207031-2.195312-.582031-4.367188-2.152344-5.917969-1.570312-1.550781-3.75-2.316406-5.945312-2.082031l.097656-16c6.421875-.1875 12.636719 2.28125 17.175781 6.824219 4.542969 4.539062 7.011719 10.753906 6.824219 17.175781zm0 0"/><path d="m356.441406 254.65625-8.882812-13.3125c.679687-.457031 68.441406-46.207031 68.441406-89.34375h16c0 51.6875-72.480469 100.601562-75.558594 102.65625zm0 0"/><path d="m432 128h-16c.207031-2.195312-.582031-4.367188-2.152344-5.917969-1.570312-1.550781-3.75-2.316406-5.945312-2.082031l.097656-16c6.421875-.1875 12.636719 2.28125 17.175781 6.824219 4.542969 4.539062 7.011719 10.753906 6.824219 17.175781zm0 0"/><path d="m244.441406 422.65625-8.882812-13.3125c.679687-.457031 68.441406-46.207031 68.441406-89.34375h16c0 51.6875-72.480469 100.601562-75.558594 102.65625zm0 0"/><path d="m320 296h-16c.207031-2.195312-.582031-4.367188-2.152344-5.917969-1.570312-1.550781-3.75-2.316406-5.945312-2.082031l.097656-16c6.421875-.1875 12.636719 2.28125 17.175781 6.824219 4.542969 4.539062 7.011719 10.753906 6.824219 17.175781zm0 0"/></g></g><g transform="matrix(0.12931033968925476 0 0 0.12931033968925476 248 123)"><path d="m408 80c-40 0-51.945312 28.566406-64 40-12.054688-11.433594-24-40-64-40-37.128906 0-56 42.871094-56 80 0 64 120 136 120 136s120-72 120-136c0-37.128906-18.871094-80-56-80zm0 0" fill="#dd3e46"/><path d="m184 0c-40 0-51.945312 28.566406-64 40-12.054688-11.433594-24-40-64-40-37.128906 0-56 42.871094-56 80 0 64 120 136 120 136s120-72 120-136c0-37.128906-18.871094-80-56-80zm0 0" fill="#f98c96"/><path d="m296 248c-40 0-51.945312 28.566406-64 40-12.054688-11.433594-24-40-64-40-37.128906 0-56 42.871094-56 80 0 64 120 136 120 136s120-72 120-136c0-37.128906-18.871094-80-56-80zm0 0" fill="#f98c96"/><g fill="#ffffff"><path d="m132.441406 174.65625-8.882812-13.3125c.679687-.457031 68.441406-46.207031 68.441406-89.34375h16c0 51.6875-72.480469 100.601562-75.558594 102.65625zm0 0"/><path d="m208 48h-16c.207031-2.195312-.582031-4.367188-2.152344-5.917969-1.570312-1.550781-3.75-2.316406-5.945312-2.082031l.097656-16c6.421875-.1875 12.636719 2.28125 17.175781 6.824219 4.542969 4.539062 7.011719 10.753906 6.824219 17.175781zm0 0"/><path d="m356.441406 254.65625-8.882812-13.3125c.679687-.457031 68.441406-46.207031 68.441406-89.34375h16c0 51.6875-72.480469 100.601562-75.558594 102.65625zm0 0"/><path d="m432 128h-16c.207031-2.195312-.582031-4.367188-2.152344-5.917969-1.570312-1.550781-3.75-2.316406-5.945312-2.082031l.097656-16c6.421875-.1875 12.636719 2.28125 17.175781 6.824219 4.542969 4.539062 7.011719 10.753906 6.824219 17.175781zm0 0"/><path d="m244.441406 422.65625-8.882812-13.3125c.679687-.457031 68.441406-46.207031 68.441406-89.34375h16c0 51.6875-72.480469 100.601562-75.558594 102.65625zm0 0"/><path d="m320 296h-16c.207031-2.195312-.582031-4.367188-2.152344-5.917969-1.570312-1.550781-3.75-2.316406-5.945312-2.082031l.097656-16c6.421875-.1875 12.636719 2.28125 17.175781 6.824219 4.542969 4.539062 7.011719 10.753906 6.824219 17.175781zm0 0"/></g></g><g transform="matrix(0.1171877309679985 0 0 0.1171877309679985 65.00000124454755 154)"><path d="M412.41,0H99.589C47.531,0,5.332,42.201,5.332,94.257v205.172c0,52.057,42.201,94.257,94.257,94.257  h44.894c2.136,0,3.867,1.731,3.867,3.867v101.207c0,11.966,14.637,17.768,22.834,9.05l106.188-112.906  c0.731-0.778,1.751-1.218,2.818-1.218h132.22c52.057,0,94.257-42.201,94.257-94.257V94.257C506.667,42.201,464.466,0,412.41,0z" fill="#ec5569"/><path d="M188.005,358.509c0-2.249-1.676-4.072-3.744-4.072h-43.462c-50.396,0-91.25-44.439-91.25-99.257  V39.123c0-9.276,1.174-18.253,3.361-26.77C24.489,28.587,5.332,59.184,5.332,94.257v205.172c0,52.056,42.201,94.257,94.257,94.257  h44.894c2.136,0,3.867,1.732,3.867,3.867v101.207c0,11.966,14.637,17.768,22.834,9.05l16.82-17.885V358.509H188.005z" fill="#e63950"/><path d="M361.908,122.325L361.908,122.325c-23.931-23.931-62.731-23.931-86.663,0l-13.518,13.518  c-3.223,3.223-8.45,3.223-11.673,0l-13.302-13.302c-23.931-23.931-62.731-23.931-86.663,0l0,0  c-23.931,23.931-23.931,62.731,0,86.663l99.973,99.973c3.223,3.223,8.45,3.223,11.673,0l100.172-100.189  C385.839,185.056,385.839,146.257,361.908,122.325z" fill="#ec5569"/><path d="M361.908,122.325L361.908,122.325c-23.931-23.931-62.731-23.931-86.663,0l-13.518,13.518  c-3.223,3.223-8.45,3.223-11.673,0l-13.302-13.302c-23.931-23.931-62.731-23.931-86.663,0l0,0  c-23.931,23.931-23.931,62.731,0,86.663l99.973,99.973c3.223,3.223,8.45,3.223,11.673,0l100.172-100.189  C385.839,185.056,385.839,146.257,361.908,122.325z" fill="#fff5f5"/><path d="M182.145,209.204c-23.931-23.931-23.931-62.731,0-86.663l0,0c7.85-7.85,17.304-13.108,27.303-15.807  c-20.486-5.532-43.278-0.274-59.358,15.807l0,0c-23.931,23.931-23.931,62.731,0,86.663l99.973,99.973  c3.223,3.223,8.45,3.223,11.673,0l10.19-10.192L182.145,209.204z" fill="#dce6eb"/></g><g transform="matrix(0.1171875 0 0 0.1171875 246 238)"><path d="M407.815,0h-303.63c-21.38,0-41.736,6.707-58.87,19.394c-3.341,2.474-4.044,7.188-1.57,10.529s7.188,4.042,10.529,1.57    c14.522-10.754,31.781-16.439,49.911-16.439h303.629c46.296,0,83.96,37.665,83.96,83.96v199.144    c0,46.296-37.665,83.96-83.96,83.96H279.48c-3.101,0-6.097,1.296-8.217,3.553l-103.068,109.59    c-2.225,2.364-4.805,1.693-5.81,1.296c-1.006-0.398-3.345-1.676-3.345-4.924V393.4c0-6.22-5.06-11.28-11.28-11.28h-43.575    c-46.296,0-83.961-37.665-83.961-83.96V99.014c0-17.032,5.069-33.429,14.66-47.417c2.35-3.429,1.477-8.113-1.951-10.464    c-3.427-2.351-8.114-1.476-10.464,1.951C11.153,59.59,5.171,78.93,5.171,99.014v199.144c0,54.596,44.418,99.014,99.015,99.014    h39.801v94.461c0,8.398,5.044,15.824,12.851,18.918c2.461,0.975,5.017,1.449,7.543,1.449c5.489,0,10.84-2.237,14.78-6.425    l101.95-108.402h126.704c54.596,0,99.014-44.418,99.014-99.014V99.014C506.829,44.418,462.412,0,407.815,0z"/><path d="M364.119,120.935c-26.124-26.125-68.635-26.123-94.761,0l-13.119,13.12c-0.035,0.035-0.143,0.143-0.344,0.143    c-0.2,0-0.307-0.106-0.342-0.143l-12.911-12.91c-26.125-26.125-68.635-26.124-94.76,0c-26.125,26.125-26.125,68.636,0,94.761    l97.035,97.035c2.935,2.935,6.837,4.551,10.987,4.551s8.053-1.617,10.987-4.552l53.325-53.334c2.94-2.94,2.94-7.706-0.001-10.644    c-2.94-2.939-7.707-2.94-10.644,0.001l-53.325,53.334c-0.035,0.035-0.143,0.141-0.342,0.141c-0.201,0-0.308-0.106-0.343-0.143    l-97.035-97.035c-20.256-20.257-20.256-53.215,0-73.472s53.215-20.255,73.471,0l12.91,12.91c2.935,2.935,6.837,4.552,10.987,4.552    c4.151,0,8.052-1.616,10.988-4.551l13.12-13.12c20.26-20.255,53.216-20.255,73.472,0c20.256,20.256,20.256,53.214,0,73.472    l-22.472,22.477c-2.94,2.94-2.94,7.706,0.001,10.644c2.94,2.939,7.706,2.94,10.644-0.001l22.473-22.476    C390.244,189.57,390.244,147.06,364.119,120.935z"/></g></defs><g fi:class="KUsePattern" opacity="0.33"><pattern id="pattern_L1_6" width="350" height="350" patternUnits="userSpaceOnUse"><use xlink:href="#L1_6" x="-350" y="-350"/><use xlink:href="#L1_6" x="0" y="-350"/><use xlink:href="#L1_6" x="350" y="-350"/><use xlink:href="#L1_6" x="-350" y="0"/><use xlink:href="#L1_6" x="0" y="0"/><use xlink:href="#L1_6" x="350" y="0"/><use xlink:href="#L1_6" x="-350" y="350"/><use xlink:href="#L1_6" x="0" y="350"/><use xlink:href="#L1_6" x="350" y="350"/></pattern><rect x="0" y="0" width="100%" height="100%" fill="url(#pattern_L1_6)"/></g><g fi:class="KUsePattern" opacity="0.29"><pattern id="pattern_L1_8" width="350" height="350" patternUnits="userSpaceOnUse"><use xlink:href="#L1_8" x="-350" y="-350"/><use xlink:href="#L1_8" x="0" y="-350"/><use xlink:href="#L1_8" x="350" y="-350"/><use xlink:href="#L1_8" x="-350" y="0"/><use xlink:href="#L1_8" x="0" y="0"/><use xlink:href="#L1_8" x="350" y="0"/><use xlink:href="#L1_8" x="-350" y="350"/><use xlink:href="#L1_8" x="0" y="350"/><use xlink:href="#L1_8" x="350" y="350"/></pattern><rect x="0" y="0" width="100%" height="100%" fill="url(#pattern_L1_8)"/></g><g fi:class="KUsePattern" opacity="0.41"><pattern id="pattern_L1_9" width="350" height="350" patternUnits="userSpaceOnUse"><use xlink:href="#L1_9" x="-350" y="-350"/><use xlink:href="#L1_9" x="0" y="-350"/><use xlink:href="#L1_9" x="350" y="-350"/><use xlink:href="#L1_9" x="-350" y="0"/><use xlink:href="#L1_9" x="0" y="0"/><use xlink:href="#L1_9" x="350" y="0"/><use xlink:href="#L1_9" x="-350" y="350"/><use xlink:href="#L1_9" x="0" y="350"/><use xlink:href="#L1_9" x="350" y="350"/></pattern><rect x="0" y="0" width="100%" height="100%" fill="url(#pattern_L1_9)"/></g><g fi:class="KUsePattern" opacity="0.23"><pattern id="pattern_L1_10" width="350" height="350" patternUnits="userSpaceOnUse"><use xlink:href="#L1_10" x="-350" y="-350"/><use xlink:href="#L1_10" x="0" y="-350"/><use xlink:href="#L1_10" x="350" y="-350"/><use xlink:href="#L1_10" x="-350" y="0"/><use xlink:href="#L1_10" x="0" y="0"/><use xlink:href="#L1_10" x="350" y="0"/><use xlink:href="#L1_10" x="-350" y="350"/><use xlink:href="#L1_10" x="0" y="350"/><use xlink:href="#L1_10" x="350" y="350"/></pattern><rect x="0" y="0" width="100%" height="100%" fill="url(#pattern_L1_10)"/></g><g fi:class="KUsePattern" opacity="0.37"><pattern id="pattern_L1_11" width="350" height="350" patternUnits="userSpaceOnUse"><use xlink:href="#L1_11" x="-350" y="-350"/><use xlink:href="#L1_11" x="0" y="-350"/><use xlink:href="#L1_11" x="350" y="-350"/><use xlink:href="#L1_11" x="-350" y="0"/><use xlink:href="#L1_11" x="0" y="0"/><use xlink:href="#L1_11" x="350" y="0"/><use xlink:href="#L1_11" x="-350" y="350"/><use xlink:href="#L1_11" x="0" y="350"/><use xlink:href="#L1_11" x="350" y="350"/></pattern><rect x="0" y="0" width="100%" height="100%" fill="url(#pattern_L1_11)"/></g><g fi:class="KUsePattern" opacity="0.25"><pattern id="pattern_L1_12" width="350" height="350" patternUnits="userSpaceOnUse"><use xlink:href="#L1_12" x="-350" y="-350"/><use xlink:href="#L1_12" x="0" y="-350"/><use xlink:href="#L1_12" x="350" y="-350"/><use xlink:href="#L1_12" x="-350" y="0"/><use xlink:href="#L1_12" x="0" y="0"/><use xlink:href="#L1_12" x="350" y="0"/><use xlink:href="#L1_12" x="-350" y="350"/><use xlink:href="#L1_12" x="0" y="350"/><use xlink:href="#L1_12" x="350" y="350"/></pattern><rect x="0" y="0" width="100%" height="100%" fill="url(#pattern_L1_12)"/></g><g fi:class="KUsePattern" transform="matrix(1 0 0 1 20 20)" opacity="0.31"><pattern id="pattern_UNKNOWN" width="350" height="350" patternUnits="userSpaceOnUse"><use xlink:href="#UNKNOWN" x="-350" y="-350"/><use xlink:href="#UNKNOWN" x="0" y="-350"/><use xlink:href="#UNKNOWN" x="350" y="-350"/><use xlink:href="#UNKNOWN" x="-350" y="0"/><use xlink:href="#UNKNOWN" x="0" y="0"/><use xlink:href="#UNKNOWN" x="350" y="0"/><use xlink:href="#UNKNOWN" x="-350" y="350"/><use xlink:href="#UNKNOWN" x="0" y="350"/><use xlink:href="#UNKNOWN" x="350" y="350"/></pattern><rect x="0" y="0" width="100%" height="100%" fill="url(#pattern_UNKNOWN)"/></g><g fi:class="KUsePattern" transform="matrix(1 0 0 1 20 20)" opacity="0.23"><pattern id="pattern_UNKNOWN" width="350" height="350" patternUnits="userSpaceOnUse"><use xlink:href="#UNKNOWN" x="-350" y="-350"/><use xlink:href="#UNKNOWN" x="0" y="-350"/><use xlink:href="#UNKNOWN" x="350" y="-350"/><use xlink:href="#UNKNOWN" x="-350" y="0"/><use xlink:href="#UNKNOWN" x="0" y="0"/><use xlink:href="#UNKNOWN" x="350" y="0"/><use xlink:href="#UNKNOWN" x="-350" y="350"/><use xlink:href="#UNKNOWN" x="0" y="350"/><use xlink:href="#UNKNOWN" x="350" y="350"/></pattern><rect x="0" y="0" width="100%" height="100%" fill="url(#pattern_UNKNOWN)"/></g><g fi:class="KUsePattern" transform="matrix(1 0 0 1 20 20)" opacity="0.41"><pattern id="pattern_UNKNOWN" width="350" height="350" patternUnits="userSpaceOnUse"><use xlink:href="#UNKNOWN" x="-350" y="-350"/><use xlink:href="#UNKNOWN" x="0" y="-350"/><use xlink:href="#UNKNOWN" x="350" y="-350"/><use xlink:href="#UNKNOWN" x="-350" y="0"/><use xlink:href="#UNKNOWN" x="0" y="0"/><use xlink:href="#UNKNOWN" x="350" y="0"/><use xlink:href="#UNKNOWN" x="-350" y="350"/><use xlink:href="#UNKNOWN" x="0" y="350"/><use xlink:href="#UNKNOWN" x="350" y="350"/></pattern><rect x="0" y="0" width="100%" height="100%" fill="url(#pattern_UNKNOWN)"/></g><g fi:class="KUsePattern" transform="matrix(1 0 0 1 20 20)" opacity="0.41"><pattern id="pattern_UNKNOWN" width="350" height="350" patternUnits="userSpaceOnUse"><use xlink:href="#UNKNOWN" x="-350" y="-350"/><use xlink:href="#UNKNOWN" x="0" y="-350"/><use xlink:href="#UNKNOWN" x="350" y="-350"/><use xlink:href="#UNKNOWN" x="-350" y="0"/><use xlink:href="#UNKNOWN" x="0" y="0"/><use xlink:href="#UNKNOWN" x="350" y="0"/><use xlink:href="#UNKNOWN" x="-350" y="350"/><use xlink:href="#UNKNOWN" x="0" y="350"/><use xlink:href="#UNKNOWN" x="350" y="350"/></pattern><rect x="0" y="0" width="100%" height="100%" fill="url(#pattern_UNKNOWN)"/></g><g fi:class="KUsePattern" transform="matrix(1 0 0 1 20 20)" opacity="0.33"><pattern id="pattern_UNKNOWN" width="350" height="350" patternUnits="userSpaceOnUse"><use xlink:href="#UNKNOWN" x="-350" y="-350"/><use xlink:href="#UNKNOWN" x="0" y="-350"/><use xlink:href="#UNKNOWN" x="350" y="-350"/><use xlink:href="#UNKNOWN" x="-350" y="0"/><use xlink:href="#UNKNOWN" x="0" y="0"/><use xlink:href="#UNKNOWN" x="350" y="0"/><use xlink:href="#UNKNOWN" x="-350" y="350"/><use xlink:href="#UNKNOWN" x="0" y="350"/><use xlink:href="#UNKNOWN" x="350" y="350"/></pattern><rect x="0" y="0" width="100%" height="100%" fill="url(#pattern_UNKNOWN)"/></g><g fi:class="KUsePattern" transform="matrix(1 0 0 1 20 20)" opacity="0.29"><pattern id="pattern_UNKNOWN" width="350" height="350" patternUnits="userSpaceOnUse"><use xlink:href="#UNKNOWN" x="-350" y="-350"/><use xlink:href="#UNKNOWN" x="0" y="-350"/><use xlink:href="#UNKNOWN" x="350" y="-350"/><use xlink:href="#UNKNOWN" x="-350" y="0"/><use xlink:href="#UNKNOWN" x="0" y="0"/><use xlink:href="#UNKNOWN" x="350" y="0"/><use xlink:href="#UNKNOWN" x="-350" y="350"/><use xlink:href="#UNKNOWN" x="0" y="350"/><use xlink:href="#UNKNOWN" x="350" y="350"/></pattern><rect x="0" y="0" width="100%" height="100%" fill="url(#pattern_UNKNOWN)"/></g></svg>